# xmcd
# 
# Track frame offsets:
#     150
#     9099
#     35374
#     52844
#     68072
#     92409
#     119001
#     134057
#     158201
#     178296
#     198985
#     218843
# 
# Disc length: 3135
# 
# Revision: 1
# Processed by: cddbd v1.5.2PL0 Copyright (c) Steve Scherf et al.
# Submitted via: fre:ac v1.0.17
# 
DISCID=a20c3d0c
DTITLE=Cloud - Adventure
DYEAR=2005
DGENRE=House
TTITLE0=Over Clouds
TTITLE1=Thinking Of You
TTITLE2=Summer Rain
TTITLE3=Those Days
TTITLE4=Hold On
TTITLE5=Cute
TTITLE6=What You Want
TTITLE7=Shake The Ground
TTITLE8=Turning
TTITLE9=Secrets
TTITLE10=Winter Nights
TTITLE11=Bye Bye
EXTD=
EXTT0=
EXTT1=
EXTT2=
EXTT3=
EXTT4=
EXTT5=
EXTT6=
EXTT7=
EXTT8=
EXTT9=
EXTT10=
EXTT11=
PLAYORDER=
